<mxfile host="Electron" modified="2024-01-17T03:32:18.443Z" agent="Mozilla/5.0 (Windows NT 10.0; Win64; x64) AppleWebKit/537.36 (KHTML, like Gecko) draw.io/22.1.11 Chrome/114.0.5735.289 Electron/25.9.8 Safari/537.36" etag="TdMtCT1XnWLlZtdVOhuK" version="22.1.11" type="device">
  <diagram name="Page-1" id="2pEKMUNTPuoco8hGqEbQ">
    <mxGraphModel dx="1434" dy="836" grid="1" gridSize="10" guides="1" tooltips="1" connect="1" arrows="1" fold="1" page="1" pageScale="1" pageWidth="1169" pageHeight="827" math="0" shadow="0">
      <root>
        <mxCell id="0" />
        <mxCell id="1" parent="0" />
        <mxCell id="eb5V1gyrBd8Sp502NQEh-1" value="Cube Orange" style="rounded=1;whiteSpace=wrap;html=1;" parent="1" vertex="1">
          <mxGeometry x="270" y="240" width="210" height="280" as="geometry" />
        </mxCell>
        <mxCell id="eb5V1gyrBd8Sp502NQEh-2" value="12V Battery" style="shape=process;whiteSpace=wrap;html=1;backgroundOutline=1;" parent="1" vertex="1">
          <mxGeometry x="315" y="80" width="120" height="60" as="geometry" />
        </mxCell>
        <mxCell id="eb5V1gyrBd8Sp502NQEh-3" value="GPS Module&lt;br&gt;" style="ellipse;whiteSpace=wrap;html=1;aspect=fixed;" parent="1" vertex="1">
          <mxGeometry x="600" y="80" width="80" height="80" as="geometry" />
        </mxCell>
        <mxCell id="eb5V1gyrBd8Sp502NQEh-4" value="Secondary GPS?&lt;br&gt;" style="ellipse;whiteSpace=wrap;html=1;aspect=fixed;" parent="1" vertex="1">
          <mxGeometry x="600" y="210" width="80" height="80" as="geometry" />
        </mxCell>
        <mxCell id="eb5V1gyrBd8Sp502NQEh-5" value="Sonar&lt;br&gt;" style="ellipse;whiteSpace=wrap;html=1;aspect=fixed;" parent="1" vertex="1">
          <mxGeometry x="280" y="580" width="80" height="80" as="geometry" />
        </mxCell>
        <mxCell id="eb5V1gyrBd8Sp502NQEh-6" value="Sonar&lt;br&gt;" style="ellipse;whiteSpace=wrap;html=1;aspect=fixed;" parent="1" vertex="1">
          <mxGeometry x="390" y="580" width="80" height="80" as="geometry" />
        </mxCell>
        <mxCell id="eb5V1gyrBd8Sp502NQEh-7" value="Drive Motor 1" style="shape=cylinder3;whiteSpace=wrap;html=1;boundedLbl=1;backgroundOutline=1;size=15;" parent="1" vertex="1">
          <mxGeometry x="585" y="390" width="60" height="80" as="geometry" />
        </mxCell>
        <mxCell id="eb5V1gyrBd8Sp502NQEh-8" value="Drive Motor 2" style="shape=cylinder3;whiteSpace=wrap;html=1;boundedLbl=1;backgroundOutline=1;size=15;" parent="1" vertex="1">
          <mxGeometry x="675" y="390" width="60" height="80" as="geometry" />
        </mxCell>
        <mxCell id="eb5V1gyrBd8Sp502NQEh-9" value="5V&lt;br&gt;" style="text;strokeColor=none;align=center;fillColor=none;html=1;verticalAlign=middle;whiteSpace=wrap;rounded=0;" parent="1" vertex="1">
          <mxGeometry x="345" y="670" width="60" height="30" as="geometry" />
        </mxCell>
        <mxCell id="eb5V1gyrBd8Sp502NQEh-11" value="5V&lt;br&gt;" style="text;strokeColor=none;align=center;fillColor=none;html=1;verticalAlign=middle;whiteSpace=wrap;rounded=0;" parent="1" vertex="1">
          <mxGeometry x="540" y="170" width="60" height="30" as="geometry" />
        </mxCell>
        <mxCell id="eb5V1gyrBd8Sp502NQEh-12" value="12V" style="text;strokeColor=none;align=center;fillColor=none;html=1;verticalAlign=middle;whiteSpace=wrap;rounded=0;" parent="1" vertex="1">
          <mxGeometry x="630" y="480" width="60" height="30" as="geometry" />
        </mxCell>
        <mxCell id="d_VJSqHoTCs4uR1940qM-1" value="Scoop Motor 1" style="shape=cylinder3;whiteSpace=wrap;html=1;boundedLbl=1;backgroundOutline=1;size=15;" parent="1" vertex="1">
          <mxGeometry x="585" y="520" width="60" height="80" as="geometry" />
        </mxCell>
        <mxCell id="d_VJSqHoTCs4uR1940qM-2" value="Scoop Motor 2" style="shape=cylinder3;whiteSpace=wrap;html=1;boundedLbl=1;backgroundOutline=1;size=15;" parent="1" vertex="1">
          <mxGeometry x="675" y="520" width="60" height="80" as="geometry" />
        </mxCell>
        <mxCell id="d_VJSqHoTCs4uR1940qM-3" value="Vibration Motor" style="shape=cylinder3;whiteSpace=wrap;html=1;boundedLbl=1;backgroundOutline=1;size=15;" parent="1" vertex="1">
          <mxGeometry x="775" y="450" width="60" height="80" as="geometry" />
        </mxCell>
      </root>
    </mxGraphModel>
  </diagram>
</mxfile>
